<svg xmlns="http://www.w3.org/2000/svg" xmlns:xlink="http://www.w3.org/1999/xlink" width="1280.5" height="335.63" viewBox="0 0 1280.5 335.63"><defs><clipPath id="a"><rect width="1280" height="310" transform="translate(0 2813)" fill="#f26101"/></clipPath></defs><g transform="translate(0 -2695.185)"><g transform="translate(0 -158)"><g transform="translate(0 53)" clip-path="url(#a)"><rect width="1337" height="385" transform="translate(-34 2770)" fill="#e8e8e8"/><g transform="translate(345.012 2795.2)"><path d="M12.6,0,223.465,170.232,12.6,340.464h203.37L426.8,170.232,215.975,0Z" transform="translate(-64.291)" fill="#f0f0f0"/><path d="M.038,0,210.9,170.232,0,340.464H235.941L446.8,170.232,235.941,0Z" transform="translate(-528.511)" fill="#f0f0f0"/><path d="M24.347,0l210.9,170.232L24.347,340.464H227.755L438.578,170.232,227.755,0Z" transform="translate(368.168)" fill="#f0f0f0"/><path d="M24.347,0l210.9,170.232L24.347,340.464H227.755L438.578,170.232,227.755,0Z" transform="translate(812.421)" fill="#f0f0f0"/></g></g></g><path d="M1280,6.815H0V-6.815H1280Z" transform="translate(0.5 2702)" fill="#e8e8e8"/><path d="M1280,6.815H0V-6.815H1280Z" transform="translate(0.5 3024)" fill="#e8e8e8"/></g></svg>